<svg width="284" height="284" viewBox="0 0 284 284" fill="none" xmlns="http://www.w3.org/2000/svg">
<circle cx="141.5" cy="142.5" r="141.5" fill="#41A3FF"/>
<path d="M283.5 142C280.5 225 222 284 140 284C140 232.88 140 213.424 140 135C140 56.5757 140 28.8999 140 0.5C225.5 0.5 280.5 63 283.5 142Z" fill="#1B8FFC"/>
<path fill-rule="evenodd" clip-rule="evenodd" d="M140.803 60.0163C124.113 60.0016 107.98 66.0263 95.3854 76.978C82.7905 87.9298 74.5835 103.069 72.2799 119.6C69.9763 136.13 73.7317 152.936 82.8526 166.914C91.9736 180.892 105.844 191.098 121.903 195.647C127.077 197.128 130.928 201.868 130.928 207.566V225.419C130.928 232.233 125.398 237.763 118.585 237.763H81.5543C78.9353 237.763 76.4236 236.722 74.5717 234.87C72.7198 233.019 71.6795 230.507 71.6795 227.888C71.6795 225.269 72.7198 222.757 74.5717 220.905C76.4236 219.053 78.9353 218.013 81.5543 218.013H111.179V212.957C91.4128 205.969 74.7538 192.218 64.146 174.135C53.5382 156.052 49.6646 134.801 53.2098 114.138C56.755 93.4752 67.4907 74.7309 83.5195 61.2179C99.5484 47.705 119.838 40.2936 140.803 40.2936C161.768 40.2936 182.058 47.705 198.087 61.2179C214.115 74.7309 224.851 93.4752 228.396 114.138C231.941 134.801 228.068 156.052 217.46 174.135C206.852 192.218 190.193 205.969 170.427 212.957V218.013H200.052C202.671 218.013 205.182 219.053 207.034 220.905C208.886 222.757 209.927 225.269 209.927 227.888C209.927 230.507 208.886 233.019 207.034 234.87C205.182 236.722 202.671 237.763 200.052 237.763H163.021C156.208 237.763 150.678 232.233 150.678 225.419V207.566C150.678 201.868 154.529 197.118 159.703 195.647C175.762 191.098 189.632 180.892 198.753 166.914C207.874 152.936 211.63 136.13 209.326 119.6C207.023 103.069 198.816 87.9298 186.221 76.978C173.626 66.0263 157.494 60.0016 140.803 60.0163Z" fill="white"/>
<path d="M143.756 117.541C143.844 116.879 143.717 116.206 143.396 115.62C143.074 115.035 142.574 114.567 141.969 114.284C141.346 113.992 140.641 113.923 139.973 114.087C139.305 114.252 138.714 114.641 138.298 115.189L118.676 140.349C118.32 140.808 118.095 141.354 118.024 141.93C117.953 142.506 118.04 143.09 118.274 143.621C118.707 144.609 119.707 145.483 121.08 145.483H137.88L136.246 159.459C136.159 160.121 136.285 160.794 136.607 161.38C136.928 161.965 137.428 162.433 138.034 162.716C138.657 163.008 139.361 163.077 140.029 162.913C140.698 162.748 141.289 162.359 141.705 161.811L161.324 136.651C161.68 136.192 161.905 135.646 161.976 135.07C162.047 134.494 161.96 133.91 161.726 133.379C161.491 132.829 161.1 132.36 160.601 132.029C160.103 131.698 159.518 131.52 158.92 131.517H142.12L143.756 117.541Z" fill="#FFC800"/>
</svg>
