<svg width="269" height="269" viewBox="0 0 269 269" fill="none" xmlns="http://www.w3.org/2000/svg">
<path d="M220.437 212.857H196.025C195.854 213.521 195.527 214.135 195.071 214.647C194.615 215.159 194.043 215.555 193.404 215.801C193.504 215.946 196.739 220.618 198.246 222.813C198.593 223.192 198.82 223.667 198.897 224.175C198.896 224.406 198.844 224.633 198.743 224.841C198.643 225.049 198.497 225.231 198.316 225.374C198.135 225.518 197.925 225.619 197.7 225.669C197.475 225.72 197.241 225.719 197.016 225.667C196.715 225.598 196.442 225.439 196.233 225.212C194.901 223.822 193.562 222.439 192.215 221.064C191.89 221.468 191.503 221.816 191.067 222.096C189.57 222.941 187.866 223.354 186.147 223.286C186.505 223.743 186.767 224.267 186.917 224.827C187.067 225.387 187.103 225.972 187.022 226.546C186.941 227.121 186.745 227.673 186.444 228.169C186.144 228.665 185.747 229.096 185.276 229.434C184.086 230.331 182.772 231.052 181.375 231.573C179.627 232.245 177.898 232.973 176.151 233.655C160.953 239.573 145.543 244.512 129.511 246.631C129.511 247.176 129.536 247.76 129.536 247.76C129.537 247.89 129.59 248.015 129.682 248.108C129.774 248.2 129.899 248.252 130.03 248.253H220.433C220.563 248.252 220.688 248.199 220.78 248.107C220.872 248.015 220.925 247.89 220.926 247.76V213.351C220.925 213.221 220.874 213.096 220.782 213.004C220.691 212.912 220.567 212.859 220.437 212.857Z" fill="#FFC800"/>
<path d="M198.253 222.813C196.744 220.618 193.509 215.953 193.411 215.801C193.23 215.863 193.043 215.908 192.854 215.936C193.262 216.758 193.419 217.682 193.307 218.592C193.195 219.503 192.819 220.361 192.225 221.06L196.152 225.095C196.347 225.349 196.617 225.536 196.923 225.63C197.23 225.723 197.558 225.718 197.862 225.616C198.165 225.513 198.429 225.318 198.617 225.058C198.804 224.798 198.905 224.486 198.907 224.166C198.827 223.66 198.6 223.189 198.253 222.813Z" fill="#41A3FF"/>
<path d="M153.86 161.463C153.802 161.379 153.713 161.322 153.612 161.303C153.512 161.284 153.408 161.305 153.322 161.361C153.025 161.564 150.607 163.576 143.718 169.263C143.628 169.356 143.577 169.481 143.577 169.611C143.577 169.741 143.628 169.866 143.718 169.96C149.445 176.147 149.994 177.252 164.565 192.515C169.52 192.171 174.479 193.129 178.949 195.294C170.109 182.947 153.973 161.61 153.86 161.463Z" fill="#41A3FF"/>
<path d="M158.324 21.3198C157.557 18.9795 156.208 16.8722 154.404 15.1956C152.6 13.5189 150.4 12.3278 148.01 11.734C145.26 11.0494 151.708 11.2565 59.2645 11.2565C58.3095 11.2565 57.3479 11.2323 56.3956 11.321C52.7103 11.6617 49.285 13.3666 46.7914 16.1016C44.2979 18.8365 42.9157 22.4042 42.916 26.1053V55.32C52.3122 50.9811 61.6774 56.1055 63.2807 63.7935C71.2927 57.7877 79.7676 52.4255 88.6258 47.7571C90.9635 46.6004 93.7799 45.8216 96.0072 47.597C96.8764 48.307 97.5565 49.221 97.9869 50.2576C98.4173 51.2941 98.5846 52.421 98.4739 53.5379C97.9252 59.7384 91.1787 64.9153 86.3246 68.7633H158.62C158.75 68.7619 158.875 68.7094 158.967 68.6171C159.059 68.5248 159.111 68.4001 159.112 68.2697V51.0819H154.929C154.843 51.08 154.759 51.0559 154.685 51.012C154.611 50.9681 154.55 50.9059 154.507 50.8313C154.465 50.7568 154.442 50.6725 154.441 50.5865C154.441 50.5006 154.462 50.416 154.504 50.3408C154.815 49.8028 156.638 46.6784 159.112 42.4309V31.6884C157.003 32.3743 154.916 30.9903 154.691 28.1188C154.544 26.2438 155.323 23.1194 153.132 22.1053C152.676 21.9473 152.176 21.9739 151.739 22.1795C151.302 22.3851 150.963 22.7533 150.794 23.2055C150.392 24.1529 150.229 25.1847 150.318 26.2102C150.347 27.999 150.574 30.8303 148.289 31.336C147.391 31.5392 146.45 31.4157 145.635 30.9876C144.8 30.4603 144.188 29.644 143.916 28.6944C143.504 26.5044 143.512 24.2562 143.938 22.0689C144.014 21.4476 145.014 21.4422 144.922 22.0689C144.742 23.3789 144.632 24.6975 144.591 26.0192C144.502 27.1327 144.728 28.2488 145.245 29.2391C145.512 29.7059 145.928 30.0694 146.426 30.2716C146.924 30.4738 147.476 30.5028 147.993 30.3541C148.336 30.256 148.652 30.0825 148.92 29.8471C150.044 27.7677 148.468 24.3716 150.431 21.999C150.744 21.6122 151.158 21.3189 151.626 21.151C152.095 20.983 152.6 20.947 153.088 21.0467C153.547 21.1876 153.971 21.4245 154.332 21.7417C154.693 22.0589 154.982 22.4492 155.18 22.8867C156.144 24.9701 155.148 27.3252 155.998 29.4221C156.111 29.7163 156.285 29.9836 156.507 30.2071C156.729 30.4306 156.996 30.6053 157.289 30.72C157.583 30.8343 157.898 30.8855 158.213 30.8705C158.528 30.8554 158.836 30.7744 159.117 30.6326V27.7381C159.237 25.5685 158.968 23.3949 158.324 21.3198ZM89.6615 26.7657L82.65 35.2392C82.8423 35.4463 87.3575 40.3596 89.4234 42.6084C89.8525 43.0752 89.1544 43.7746 88.7267 43.3051C88.4349 42.9877 83.7327 37.8391 81.6493 35.605C81.5612 35.5104 81.5122 35.3859 81.5122 35.2567C81.5122 35.1274 81.5612 35.0029 81.6493 34.9083L88.9648 26.0744C89.3696 25.5767 90.0637 26.2774 89.6615 26.7657ZM110.453 27.3602C110.453 27.3602 98.6824 39.2742 94.4605 43.3495C94.3666 43.4352 94.2433 43.4814 94.1162 43.4784C93.9891 43.4755 93.8681 43.4236 93.7783 43.3337C93.6885 43.2437 93.6369 43.1226 93.6342 42.9955C93.6315 42.8684 93.6779 42.7452 93.7637 42.6515C94.9218 41.4544 105.534 30.7428 109.754 26.6608C109.847 26.5682 109.972 26.5161 110.103 26.516C110.234 26.5159 110.359 26.5677 110.452 26.6601C110.544 26.7525 110.596 26.8779 110.597 27.0087C110.597 27.1394 110.545 27.2649 110.453 27.3575V27.3602ZM122.041 35.5996C121.748 35.9157 117.032 41.0509 114.965 43.2998C114.535 43.7692 113.839 43.0698 114.268 42.6031L121.04 35.2338C120.843 34.993 116.169 29.3481 114.03 26.7603C113.627 26.2748 114.322 25.574 114.727 26.0636L122.041 34.8976C122.131 34.9918 122.181 35.117 122.181 35.2473C122.181 35.3775 122.131 35.5027 122.041 35.597V35.5996Z" fill="white"/>
<path d="M88.9633 26.066L81.6479 34.8999C81.5597 34.9945 81.5107 35.119 81.5107 35.2483C81.5107 35.3776 81.5597 35.502 81.6479 35.5966C83.7326 37.8307 88.4334 42.9793 88.7252 43.2968C89.1556 43.7648 89.851 43.0668 89.4219 42.6001L82.6485 35.2308L89.66 26.7573C90.0635 26.2771 89.3681 25.5764 88.9633 26.066Z" fill="#41A3FF"/>
<path d="M121.039 35.2307L114.267 42.6C113.836 43.0667 114.536 43.7661 114.963 43.2967L122.038 35.5966C122.127 35.5024 122.177 35.3778 122.177 35.2482C122.177 35.1187 122.127 34.994 122.038 34.8999L114.728 26.0659C114.324 25.5763 113.629 26.2771 114.031 26.7626C122.211 36.6457 120 33.9758 121.039 35.2307Z" fill="#41A3FF"/>
<path d="M110.452 27.3573C110.543 27.2644 110.594 27.1391 110.593 27.0088C110.593 26.8786 110.541 26.7539 110.448 26.662C110.356 26.57 110.231 26.5183 110.101 26.5181C109.971 26.5178 109.845 26.5691 109.753 26.6606C105.532 30.7427 94.9215 41.4556 93.7635 42.6513C93.6776 42.745 93.6312 42.8683 93.6339 42.9953C93.6366 43.1224 93.6882 43.2436 93.778 43.3335C93.8678 43.4235 93.9889 43.4753 94.1159 43.4783C94.243 43.4813 94.3663 43.4351 94.4602 43.3494C98.6821 39.274 110.452 27.3573 110.452 27.3573Z" fill="#41A3FF"/>
<path d="M158.747 77.4894C158.747 71.866 158.783 72.1874 158.665 72.0112C158.716 72.106 158.737 72.2137 158.726 72.3206C158.715 72.4276 158.672 72.5287 158.603 72.6111C158.603 72.6111 126.456 109.675 124.858 111.5C122.706 113.985 120.026 115.957 117.014 117.274C114.002 118.59 110.734 119.217 107.449 119.109H69.0664C68.7745 119.736 68.4854 120.364 68.1895 120.992C74.0684 119.791 77.1445 121.756 80.4168 119.847C80.4741 119.815 80.5373 119.795 80.6026 119.787C80.6679 119.779 80.734 119.785 80.7972 119.803C80.8604 119.821 80.9194 119.852 80.9707 119.893C81.022 119.934 81.0646 119.985 81.0961 120.043C81.3567 121.584 81.215 123.167 80.6845 124.638C80.5702 124.972 80.4424 125.3 80.2971 125.623H108.139C111.463 125.633 114.746 124.892 117.744 123.457C120.742 122.022 123.378 119.928 125.454 117.332C128.054 114.283 157.501 80.3946 158.342 79.4262C158.548 79.2481 158.689 79.0077 158.746 78.7416C158.768 78.3247 158.77 77.9077 158.747 77.4894Z" fill="#41A3FF"/>
<path d="M158.255 71.769H82.6798C79.2406 74.7818 76.1861 78.2318 75.5001 82.7738H96.6785C96.8048 82.7804 96.9237 82.8352 97.0108 82.927C97.0978 83.0187 97.1464 83.1403 97.1464 83.2668C97.1464 83.3932 97.0978 83.5149 97.0108 83.6066C96.9237 83.6983 96.8048 83.7531 96.6785 83.7597H75.4006C75.1796 85.3231 75.5432 86.9131 76.4218 88.225C77.3003 89.5369 78.6321 90.4785 80.1619 90.8694C82.9748 91.488 85.8173 91.963 88.6785 92.2924C95.8258 93.3684 98.0195 93.5204 100.492 94.4794H112.049C112.175 94.486 112.294 94.5408 112.381 94.6325C112.468 94.7242 112.517 94.8459 112.517 94.9723C112.517 95.0988 112.468 95.2204 112.381 95.3121C112.294 95.4038 112.175 95.4587 112.049 95.4653H102.26C106.255 98.3328 104.775 104.185 100.54 106.595H125.737C125.864 106.602 125.982 106.657 126.07 106.748C126.157 106.84 126.205 106.962 126.205 107.088C126.205 107.215 126.157 107.336 126.07 107.428C125.982 107.52 125.864 107.574 125.737 107.581H98.4203C96.2074 108.288 93.9224 108.745 91.6079 108.945C85.5393 109.552 79.4338 109.702 73.3428 109.393C71.9995 112.669 70.5742 115.91 69.0684 119.114H107.451C110.736 119.221 114.004 118.593 117.016 117.276C120.028 115.959 122.707 113.985 124.859 111.5C126.457 109.672 158.604 72.6083 158.604 72.6083C158.667 72.5375 158.709 72.4502 158.725 72.3565C158.742 72.2628 158.731 72.1664 158.695 72.0784C158.659 71.9903 158.598 71.9144 158.52 71.8596C158.442 71.8048 158.35 71.7734 158.255 71.769ZM147.092 83.7597H127.928C127.802 83.7531 127.683 83.6983 127.596 83.6066C127.509 83.5149 127.46 83.3932 127.46 83.2668C127.46 83.1403 127.509 83.0187 127.596 82.927C127.683 82.8352 127.802 82.7804 127.928 82.7738H147.094C147.196 82.8104 147.284 82.8772 147.346 82.9652C147.408 83.0533 147.442 83.1583 147.443 83.2661C147.443 83.3742 147.409 83.4796 147.347 83.5679C147.284 83.6563 147.196 83.7232 147.094 83.7597H147.092ZM102.939 83.7597C102.813 83.7531 102.694 83.6983 102.607 83.6066C102.52 83.5149 102.472 83.3932 102.472 83.2668C102.472 83.1403 102.52 83.0187 102.607 82.927C102.694 82.8352 102.813 82.7804 102.939 82.7738H121.689C121.815 82.7804 121.934 82.8352 122.021 82.927C122.108 83.0187 122.157 83.1403 122.157 83.2668C122.157 83.3932 122.108 83.5149 122.021 83.6066C121.934 83.6983 121.815 83.7531 121.689 83.7597H102.939ZM118.032 95.4612C117.905 95.4546 117.787 95.3998 117.699 95.3081C117.612 95.2164 117.564 95.0947 117.564 94.9683C117.564 94.8418 117.612 94.7202 117.699 94.6285C117.787 94.5367 117.905 94.4819 118.032 94.4753H136.618C136.745 94.4819 136.864 94.5367 136.951 94.6285C137.038 94.7202 137.086 94.8418 137.086 94.9683C137.086 95.0947 137.038 95.2164 136.951 95.3081C136.864 95.3998 136.745 95.4546 136.618 95.4612H118.032Z" fill="#41A3FF"/>
<path d="M100.49 94.4796C98.0543 93.5153 95.4759 93.3108 88.677 92.2926C83.0818 91.4547 82.073 91.3511 80.1604 90.8696C77.2014 90.1285 75.1705 87.573 75.3991 83.76C75.6977 78.8386 78.9741 75.0094 82.6809 71.7693C88.3542 66.8116 97.8122 61.0187 98.4739 53.5378C98.5847 52.4209 98.4175 51.294 97.9871 50.2574C97.5567 49.2209 96.8765 48.3069 96.0072 47.597C93.7799 45.8216 90.9635 46.6003 88.6258 47.757C79.7639 52.4195 71.2885 57.7825 63.2807 63.7948C62.8131 61.8404 61.8947 60.0226 60.599 58.4865C59.3033 56.9505 57.6662 55.739 55.8186 54.9487C49.0667 51.9615 41.4096 54.6797 36.5004 60.0288C34.2811 56.0328 29.2898 54.5587 24.9414 55.1693C19.3826 55.9508 15.2749 60.2978 12.823 65.0846C9.99412 71.1203 8.24168 77.6039 7.64475 84.2428C7.16055 89.3969 7.36095 89.9698 7.21973 124.355C7.22147 124.225 7.27389 124.101 7.36583 124.009C7.45778 123.917 7.58198 123.864 7.712 123.862C12.741 123.826 -8.30964 123.862 61.165 123.862C63.2997 122.465 65.6833 121.49 68.1859 120.992C70.4966 116.117 72.1617 112.278 73.3372 109.39C79.4301 109.7 85.5364 109.552 91.6077 108.945C93.9246 108.761 96.2116 108.304 98.4215 107.584C105.468 105.179 106.945 97.0324 100.49 94.4796ZM52.752 78.193C52.5153 78.7741 51.563 78.5199 51.8011 77.9321C53.5991 73.4792 56.4422 69.5243 60.0903 66.4014C60.5705 65.9979 61.2712 66.6865 60.787 67.0981C57.2577 70.0985 54.5019 73.9039 52.752 78.193ZM27.0948 72.8883C28.6972 69.2555 30.918 65.9283 33.6584 63.055C34.0969 62.5937 34.7922 63.2918 34.3551 63.7517C31.6776 66.5678 29.5091 69.8271 27.9462 73.3846C27.6906 73.9657 26.8419 73.4627 27.0948 72.8883Z" fill="white"/>
<path d="M194.053 207.36C190.368 203.186 186.103 199.563 181.389 196.6C173.707 192.008 166.822 191.952 158.086 193.127C152.553 193.871 143.782 195.517 143.405 195.683C143.476 195.669 143.548 195.672 143.618 195.689C143.688 195.706 143.753 195.739 143.809 195.784C143.865 195.828 143.911 195.885 143.942 195.95C143.974 196.015 143.991 196.085 143.992 196.157C143.992 196.888 144.197 222.534 143.992 243.577C143.99 243.677 143.958 243.775 143.899 243.857C143.841 243.939 143.759 244.002 143.665 244.037C151.069 242.294 158.371 240.144 165.539 237.598C174.966 234.275 178.163 232.801 181.38 231.573C182.777 231.052 184.09 230.332 185.281 229.434C185.751 229.095 186.149 228.665 186.449 228.169C186.749 227.672 186.945 227.121 187.026 226.546C187.107 225.972 187.071 225.387 186.921 224.827C186.771 224.267 186.509 223.743 186.152 223.286C187.871 223.354 189.574 222.942 191.072 222.096C192.072 221.466 192.805 220.491 193.133 219.356C193.461 218.221 193.359 217.005 192.849 215.94C193.73 215.749 194.526 215.279 195.118 214.599C195.71 213.919 196.066 213.066 196.133 212.167C196.062 210.361 195.32 208.647 194.053 207.36ZM167.522 220.775C172.186 221.1 176.833 221.594 181.463 222.254C181.526 222.272 181.584 222.301 181.635 222.341C181.686 222.381 181.729 222.431 181.761 222.487C181.793 222.543 181.814 222.605 181.822 222.669C181.83 222.734 181.825 222.799 181.808 222.861C181.77 222.985 181.686 223.09 181.574 223.154C181.46 223.218 181.327 223.236 181.201 223.205C176.661 222.556 172.098 222.072 167.522 221.755C166.893 221.716 166.89 220.731 167.522 220.775ZM172.16 206.108C171.594 205.82 172.094 204.97 172.658 205.256L189.088 213.586C189.654 213.872 189.155 214.723 188.591 214.436L172.16 206.108Z" fill="white"/>
<path d="M143.992 196.157C143.989 196.027 143.936 195.903 143.843 195.812C143.796 195.767 143.742 195.731 143.682 195.707C143.621 195.684 143.557 195.672 143.492 195.673C141.804 195.701 116.807 202.051 104.397 204.609C103.251 199.467 101.615 194.446 99.5104 189.615C97.4933 184.852 94.7396 180.435 91.3503 176.527C80.0523 163.684 61.3097 161.069 44.4676 166.489C47.383 161.209 50.2663 155.912 53.1173 150.597C52.3536 148.711 51.9804 146.689 52.0204 144.655C52.0604 142.621 52.5127 140.615 53.35 138.761C53.9168 137.564 54.8006 136.545 55.9055 135.815C56.0336 135.424 56.1938 135.043 56.3843 134.677C54.9896 133.137 55.6984 130.458 56.687 128.595C57.7653 126.669 59.3087 125.042 61.1766 123.865H7.71685C7.58673 123.866 7.46233 123.919 7.37031 124.011C7.27829 124.103 7.22598 124.227 7.22458 124.357C7.14254 132.956 6.72559 247.566 6.72559 248.167C6.72733 248.297 6.77975 248.421 6.87169 248.513C6.96364 248.605 7.08784 248.658 7.21786 248.659H105.852C105.982 248.658 106.107 248.605 106.199 248.513C106.291 248.422 106.344 248.297 106.346 248.167V247.527C118.875 248.176 131.433 247.005 143.626 244.051L143.661 244.037C143.756 244.002 143.838 243.939 143.896 243.857C143.954 243.775 143.986 243.677 143.988 243.577C143.994 243.445 143.998 196.8 143.992 196.157ZM111.796 242.1H118.58C118.674 242.105 118.764 242.138 118.84 242.193C118.917 242.248 118.976 242.323 119.011 242.411C119.045 242.498 119.055 242.593 119.037 242.686C119.02 242.778 118.976 242.864 118.912 242.932C118.825 243.024 118.706 243.079 118.58 243.086H111.796C111.702 243.08 111.611 243.048 111.535 242.993C111.459 242.938 111.4 242.862 111.365 242.775C111.33 242.688 111.321 242.592 111.338 242.5C111.356 242.407 111.399 242.322 111.463 242.253C111.551 242.162 111.669 242.107 111.796 242.1ZM103.89 204.709C104.51 204.584 104.773 205.535 104.159 205.66C90.7693 208.35 84.7611 209.022 71.9594 204.402C57.7334 199.268 46.5524 193.439 33.4521 188.531C32.863 188.309 33.1199 187.357 33.7211 187.58C47.8947 192.894 69.0811 203.5 80.7961 206.015C88.5406 207.668 96.1035 206.281 103.89 204.709ZM31.2503 138.072C31.3848 138.691 30.4433 138.952 30.2994 138.334C29.963 136.88 30.0918 135.356 30.6676 133.979C31.2434 132.602 32.2371 131.44 33.5086 130.657C34.564 130.156 35.7226 129.909 36.8908 129.938C38.059 129.967 39.2041 130.27 40.2336 130.823C41.7314 131.779 42.9723 133.088 43.8476 134.634C45.5019 137.073 49.2451 143.78 50.6721 146.364C50.7128 146.434 50.7357 146.513 50.7388 146.594C50.7418 146.675 50.7249 146.755 50.6895 146.828C50.6542 146.901 50.6015 146.964 50.5361 147.011C50.4706 147.059 50.3945 147.09 50.3143 147.101C50.2178 147.115 50.1192 147.1 50.0315 147.057C49.9438 147.014 49.8708 146.946 49.8221 146.862C46.3802 141.108 42.781 133.334 39.822 131.729C38.9113 131.204 37.8821 130.919 36.831 130.9C35.7799 130.882 34.7413 131.13 33.8125 131.623C32.7782 132.308 31.9783 133.293 31.5203 134.446C31.0622 135.599 30.968 136.864 31.2503 138.072ZM11.2354 130.17C11.242 130.044 11.2968 129.925 11.3885 129.838C11.4802 129.751 11.6019 129.702 11.7283 129.702C11.8548 129.702 11.9764 129.751 12.0681 129.838C12.1598 129.925 12.2147 130.044 12.2213 130.17V138.166C12.2147 138.293 12.1598 138.412 12.0681 138.499C11.9764 138.586 11.8548 138.634 11.7283 138.634C11.6019 138.634 11.4802 138.586 11.3885 138.499C11.2968 138.412 11.242 138.293 11.2354 138.166V130.17ZM105.863 247.495C83.2399 245.963 69.0663 238.385 50.8066 226.023C36.945 216.639 32.3088 212.615 22.7903 206.085C22.2711 205.728 22.7647 204.874 23.2879 205.235C33.9793 212.569 36.173 214.946 53.0582 226.351C70.1585 237.905 84.7047 245.166 105.863 246.506C106.476 246.548 106.504 247.538 105.863 247.495Z" fill="white"/>
<path d="M55.6046 137.29C52.7895 140.142 52.5031 145.709 53.7351 149.432C55.0693 146.931 56.3941 144.423 57.7082 141.911C57.002 141.375 56.44 140.673 56.0728 139.866C55.7056 139.059 55.5447 138.174 55.6046 137.29Z" fill="white"/>
<path d="M81.1573 120.273C81.1556 120.187 81.1318 120.103 81.088 120.029C81.0443 119.955 80.9821 119.894 80.9077 119.851C80.8332 119.808 80.7489 119.785 80.663 119.785C80.5772 119.784 80.4926 119.806 80.4176 119.848C77.6307 121.474 74.8116 120.274 70.2951 120.655C65.1841 121.089 59.1316 123.969 56.6797 128.59C55.6951 130.443 54.985 133.133 56.377 134.672C58.9621 129.712 65.48 129.261 69.628 132.355C69.9535 132.573 70.2494 132.831 70.5103 133.124C73.3112 132.435 75.884 131.028 77.975 129.041C79.1204 127.905 80 126.53 80.5505 125.014C81.1009 123.498 81.3086 121.879 81.1587 120.273H81.1573Z" fill="#41A3FF"/>
<path d="M61.3786 135.852C60.3713 135.61 59.3204 135.614 58.3151 135.864C57.3098 136.115 56.3796 136.603 55.6032 137.289C55.1903 142.238 62.261 145.729 68.0176 142.976C67.0855 139.619 64.76 136.571 61.3786 135.852Z" fill="white"/>
<path d="M72.0075 135.92C70.7096 129.61 58.5683 127.677 55.8984 135.813C56.3073 135.541 56.7485 135.323 57.2125 135.163C61.7142 133.572 67.0014 136.105 68.8952 142.453C69.9747 141.766 70.8391 140.789 71.3895 139.634C71.9399 138.478 72.1541 137.192 72.0075 135.92Z" fill="white"/>
<path d="M43.847 134.634C42.9687 133.089 41.7251 131.782 40.2249 130.828C39.1954 130.275 38.0503 129.972 36.8821 129.943C35.7139 129.915 34.5553 130.161 33.4999 130.663C32.2284 131.445 31.2347 132.607 30.6589 133.984C30.0831 135.362 29.9543 136.885 30.2907 138.34C30.4333 138.957 31.3829 138.696 31.2417 138.078C30.9584 136.868 31.0527 135.6 31.5121 134.446C31.9714 133.292 32.7737 132.306 33.8106 131.622C34.7391 131.129 35.7775 130.88 36.8284 130.899C37.8793 130.918 38.9082 131.203 39.8187 131.728C42.7777 133.334 46.3057 140.987 49.8188 146.86C49.8675 146.945 49.9405 147.013 50.0282 147.056C50.116 147.098 50.2145 147.114 50.3111 147.1C50.3914 147.089 50.4677 147.058 50.5334 147.011C50.599 146.963 50.6518 146.9 50.6872 146.827C50.7226 146.754 50.7395 146.674 50.7363 146.593C50.733 146.512 50.7099 146.433 50.6688 146.363C49.2512 143.78 45.5067 137.068 43.847 134.634Z" fill="#41A3FF"/>
<path d="M91.7377 143.941C89.817 133.374 78.9279 132.16 75.8344 138.758C74.8839 140.782 74.4355 143.006 74.527 145.24C74.3751 145.159 74.7395 145.185 69.416 145.185C69.0569 141.015 66.6991 136.704 62.7798 135.232C61.0561 134.498 59.1161 134.454 57.3614 135.111C55.6067 135.767 54.1714 137.073 53.3527 138.758C51.7892 142.219 51.5904 146.142 52.7959 149.743C53.4427 151.744 54.7188 153.483 56.4341 154.701C62.0831 158.727 69.5855 154.925 69.4671 146.169C74.7126 146.169 74.4033 146.208 74.5781 146.08C74.6683 147.325 74.905 148.554 75.2829 149.743C76.6723 154.117 81.2009 157.19 85.6704 156.064C89.7834 155.019 92.85 150.055 91.7377 143.941ZM65.7428 153.49C61.9957 157.13 55.9768 154.87 54.0413 150.282C52.3359 146.247 52.6425 139.057 56.4422 136.614C57.9314 135.741 59.6967 135.466 61.381 135.845C68.1464 137.292 71.0785 148.314 65.7428 153.497V153.49ZM88.2272 153.49C84.4612 157.146 78.4087 154.853 76.5257 150.282C75.3135 147.104 75.2083 143.61 76.2271 140.364C76.6878 138.85 77.637 137.532 78.9265 136.614C80.4183 135.748 82.1808 135.474 83.8654 135.845C90.6738 137.324 93.5373 148.34 88.2326 153.497L88.2272 153.49Z" fill="#41A3FF"/>
<path d="M151.164 159.843L141.994 167.644C141.511 168.055 142.21 168.749 142.692 168.34L151.861 160.539C152.345 160.129 151.644 159.434 151.164 159.843Z" fill="#41A3FF"/>
<path d="M141.427 166.819C144.564 164.317 147.642 161.744 150.66 159.1C151.138 158.682 150.439 157.986 149.964 158.403C146.944 161.045 143.865 163.619 140.73 166.122C140.234 166.518 140.936 167.212 141.427 166.819Z" fill="#41A3FF"/>
<path d="M203.323 151.704C202.032 149.348 191.849 131.99 191.353 131.148C191.308 131.076 191.245 131.016 191.171 130.974C191.096 130.933 191.012 130.911 190.927 130.911C190.842 130.911 190.758 130.933 190.683 130.974C190.609 131.016 190.546 131.076 190.501 131.148C186.497 137.992 182.507 144.844 178.531 151.704C178.488 151.779 178.466 151.864 178.467 151.95C178.467 152.036 178.49 152.12 178.534 152.195C178.576 152.269 178.638 152.332 178.712 152.375C178.786 152.419 178.87 152.443 178.956 152.445H188.36V148.343C188.367 148.217 188.422 148.098 188.514 148.011C188.606 147.924 188.727 147.875 188.854 147.875C188.98 147.876 189.101 147.924 189.192 148.011C189.284 148.098 189.339 148.217 189.346 148.343V152.445H202.906C202.99 152.439 203.071 152.412 203.142 152.366C203.213 152.321 203.272 152.259 203.313 152.186C203.354 152.113 203.377 152.03 203.379 151.946C203.38 151.862 203.361 151.779 203.323 151.704Z" fill="#41A3FF"/>
<path d="M178.736 113.819H170.121C169.991 113.821 169.867 113.874 169.775 113.966C169.684 114.058 169.631 114.182 169.629 114.312V122.933C169.631 123.063 169.683 123.187 169.775 123.279C169.867 123.371 169.991 123.424 170.121 123.427C175.995 123.468 177.945 123.482 178.631 123.436C178.951 123.416 179.209 123.38 179.246 122.827C179.29 122.166 179.271 120.261 179.23 114.318C179.23 114.187 179.178 114.06 179.086 113.967C178.993 113.873 178.867 113.82 178.736 113.819Z" fill="#41A3FF"/>
<path d="M212.955 104.869C210.961 104.138 208.79 104.041 206.739 104.591C204.688 105.141 202.856 106.311 201.495 107.941C200.135 109.572 199.311 111.583 199.136 113.699C198.962 115.816 199.446 117.934 200.522 119.765C201.597 121.596 203.213 123.05 205.146 123.928C207.08 124.806 209.238 125.065 211.324 124.67C213.411 124.275 215.324 123.245 216.803 121.721C218.282 120.197 219.254 118.253 219.586 116.155C219.963 113.797 219.507 111.381 218.297 109.322C217.087 107.262 215.198 105.688 212.955 104.869Z" fill="#41A3FF"/>
<path d="M174.461 82.7389C174.418 82.814 174.396 82.899 174.396 82.9854C174.397 83.0718 174.42 83.1565 174.464 83.2311C174.507 83.3057 174.568 83.3679 174.643 83.4117C174.717 83.4556 174.801 83.4795 174.887 83.4813H186.367C186.434 83.4781 186.5 83.4615 186.56 83.4326C186.621 83.4037 186.675 83.363 186.72 83.3129C186.764 83.2629 186.799 83.2044 186.82 83.1409C186.842 83.0775 186.851 83.0103 186.847 82.9433C186.828 82.564 181.156 73.0603 181.053 72.8854C181.009 72.8121 180.946 72.7515 180.872 72.7095C180.797 72.6676 180.713 72.6457 180.628 72.646C180.542 72.6458 180.458 72.6678 180.383 72.7097C180.308 72.7517 180.246 72.8122 180.201 72.8854C178.5 75.7503 174.696 82.33 174.461 82.7389Z" fill="#41A3FF"/>
<path d="M197.966 40.5086C197.309 38.4215 196.005 36.5978 194.242 35.3022C192.479 34.0066 190.349 33.3065 188.161 33.3035H185.761C185.631 33.3055 185.507 33.358 185.415 33.4499C185.323 33.5417 185.27 33.6657 185.268 33.7957V42.5019C185.269 42.6323 185.322 42.7568 185.414 42.849C185.506 42.9412 185.631 42.9938 185.761 42.9955C186.156 42.9864 186.549 43.0579 186.916 43.2057C187.282 43.3536 187.615 43.5746 187.893 43.8553C188.171 44.1361 188.389 44.4706 188.534 44.8385C188.678 45.2064 188.746 45.5998 188.734 45.9949V51.2135C188.735 51.3436 188.787 51.468 188.879 51.56C188.971 51.652 189.096 51.7044 189.226 51.7058H197.937C198.068 51.7047 198.193 51.6525 198.285 51.5605C198.377 51.4684 198.43 51.3438 198.431 51.2135C198.489 43.1166 198.541 42.4508 197.966 40.5086Z" fill="#41A3FF"/>
<path d="M172.665 50.3407C171.734 48.6419 164.372 36.0931 164.01 35.4838C163.966 35.4104 163.904 35.3497 163.829 35.3077C163.755 35.2658 163.671 35.2439 163.585 35.2444C163.499 35.2441 163.415 35.266 163.34 35.3079C163.266 35.3499 163.203 35.4105 163.159 35.4838C160.264 40.4306 157.379 45.3829 154.504 50.3407C154.461 50.4156 154.439 50.5003 154.439 50.5865C154.44 50.6726 154.463 50.7572 154.506 50.8316C154.549 50.9062 154.611 50.9685 154.685 51.0124C154.759 51.0562 154.843 51.0801 154.929 51.0818H172.24C172.368 51.0741 172.489 51.0187 172.578 50.9266C172.667 50.8344 172.718 50.7123 172.722 50.5841C172.723 50.4996 172.704 50.4159 172.665 50.3407Z" fill="#41A3FF"/>
<path d="M188.353 172.571C188.36 172.698 188.415 172.816 188.507 172.903C188.598 172.99 188.72 173.039 188.846 173.039C188.972 173.039 189.093 172.99 189.185 172.903C189.276 172.816 189.331 172.697 189.338 172.571V148.343C189.331 148.217 189.276 148.098 189.185 148.011C189.093 147.924 188.972 147.875 188.846 147.875C188.719 147.874 188.597 147.922 188.505 148.01C188.414 148.097 188.359 148.216 188.353 148.343V172.571Z" fill="#41A3FF"/>
<path d="M182.296 103.034V124.355C182.296 124.419 182.308 124.484 182.333 124.544C182.357 124.603 182.393 124.658 182.439 124.704C182.485 124.749 182.539 124.786 182.599 124.81C182.659 124.835 182.723 124.847 182.788 124.847C182.919 124.847 183.044 124.795 183.136 124.702C183.228 124.61 183.28 124.485 183.28 124.355V103.034C183.279 102.904 183.227 102.779 183.135 102.687C183.043 102.595 182.918 102.543 182.788 102.542C182.658 102.542 182.533 102.594 182.44 102.686C182.348 102.778 182.296 102.903 182.296 103.034Z" fill="#41A3FF"/>
<path d="M190.05 72.0193V102.551C190.055 102.645 190.087 102.735 190.142 102.811C190.197 102.888 190.273 102.947 190.36 102.982C190.448 103.016 190.543 103.026 190.636 103.008C190.728 102.991 190.814 102.947 190.882 102.883C190.974 102.796 191.029 102.677 191.036 102.551V72.0193C191.029 71.8934 190.974 71.7748 190.882 71.6879C190.791 71.6009 190.67 71.5521 190.543 71.5513C190.417 71.5514 190.295 71.6 190.203 71.6871C190.112 71.7741 190.057 71.893 190.05 72.0193Z" fill="#41A3FF"/>
<path d="M195.377 64.5088V87.7693C195.382 87.8632 195.415 87.9536 195.47 88.0298C195.525 88.1061 195.6 88.1652 195.688 88.2C195.775 88.2349 195.87 88.2441 195.963 88.2267C196.055 88.2092 196.141 88.1658 196.21 88.1015C196.301 88.0144 196.356 87.8955 196.363 87.7693V64.5088C196.356 64.3826 196.301 64.2639 196.209 64.1769C196.117 64.09 195.996 64.0413 195.869 64.0408C195.743 64.0403 195.621 64.0887 195.529 64.1759C195.437 64.2631 195.383 64.3824 195.377 64.5088Z" fill="#41A3FF"/>
<path d="M124.582 194.924C123.993 195.145 124.248 196.098 124.844 195.874C131.556 193.354 138.546 191.647 145.663 190.788C146.286 190.713 146.293 189.727 145.663 189.802C138.456 190.657 131.378 192.376 124.582 194.924Z" fill="#41A3FF"/>
<path d="M144.499 185.475C137.205 186.647 130.067 188.641 123.222 191.419C122.642 191.654 122.896 192.608 123.491 192.37C130.336 189.592 137.474 187.598 144.768 186.426C145.386 186.328 145.125 185.379 144.499 185.475Z" fill="#41A3FF"/>
<path d="M11.9952 37.8227C14.3166 41.1852 19.9307 49.3333 19.9307 49.3333C20.2884 49.8524 21.1412 49.3588 20.7807 48.8356L12.8452 37.3251C12.4888 36.8059 11.6347 37.2982 11.9952 37.8227Z" fill="#41A3FF"/>
<path d="M26.3846 48.4267C26.5191 49.0467 27.4727 48.7845 27.3341 48.1658L23.5681 31.1757C23.4336 30.5557 22.4787 30.8179 22.6172 31.4447C23.2682 34.4118 25.5883 44.849 26.3832 48.4267H26.3846Z" fill="#41A3FF"/>
<path d="M220.445 212.857H196.021C196.493 210.926 195.405 208.983 194.052 207.36C189.79 202.454 184.67 198.365 178.942 195.293C171.285 184.37 154.625 162.449 153.86 161.463C153.801 161.38 153.712 161.323 153.611 161.303C153.511 161.284 153.407 161.305 153.322 161.361C153.039 161.555 143.872 169.135 143.718 169.263C143.629 169.357 143.579 169.482 143.579 169.611C143.579 169.741 143.629 169.866 143.718 169.96C150.007 176.753 149.199 176.394 164.566 192.515C149.514 193.118 123.662 200.64 104.401 204.61C103.274 199.462 101.637 194.439 99.5162 189.615C97.4986 184.852 94.745 180.436 91.356 176.527C79.781 163.547 60.9685 161.181 44.4734 166.49C47.3887 161.21 50.272 155.912 53.1231 150.597C55.1285 155.348 60.6551 157.726 64.8784 155.372C68.1467 153.541 69.5186 149.775 69.4702 146.171C74.7157 146.171 74.4063 146.208 74.5812 146.081C74.6713 147.325 74.9067 148.554 75.286 149.743C75.912 151.906 77.3263 153.755 79.2496 154.925C81.1728 156.095 83.465 156.502 85.6734 156.064C90.6069 154.728 92.6795 149.07 91.7461 143.946C89.8335 133.42 78.9403 132.136 75.8428 138.762C74.8922 140.786 74.4437 143.01 74.5355 145.244C74.3848 145.165 74.748 145.189 69.4245 145.189C69.3514 144.262 69.1778 143.346 68.9066 142.457C72.1118 140.336 73.3102 135.943 70.5206 133.131C74.8246 131.879 78.4709 129.754 80.3082 125.627C80.3082 125.627 105.753 125.635 108.15 125.627C111.471 125.624 114.75 124.878 117.747 123.443C120.743 122.009 123.38 119.922 125.465 117.337L154.593 83.764H156.79C156.917 83.7574 157.036 83.7026 157.123 83.6109C157.21 83.5191 157.258 83.3975 157.258 83.271C157.258 83.1446 157.21 83.023 157.123 82.9312C157.036 82.8395 156.917 82.7847 156.79 82.7781H155.445C158.859 78.844 158.673 79.1264 158.758 78.7431C158.781 78.3262 158.781 77.9092 158.758 77.4909C158.758 74.6166 158.778 73.2743 158.758 72.6166C158.732 71.7195 158.559 71.8096 158.047 71.7962C155.69 71.7316 143.562 71.7706 82.6916 71.7706C83.8814 70.7396 85.0959 69.7373 86.3338 68.7646H158.629C158.759 68.7632 158.884 68.7107 158.976 68.6183C159.068 68.526 159.12 68.4013 159.121 68.2709V51.0818H172.25C172.385 51.0742 172.511 51.0133 172.602 50.9124C172.692 50.8116 172.739 50.679 172.731 50.5438C172.72 50.3609 173.289 51.3993 164.02 35.4798C163.976 35.4065 163.913 35.3458 163.839 35.3038C163.764 35.2618 163.68 35.24 163.595 35.2404C163.509 35.2401 163.425 35.262 163.35 35.304C163.275 35.3459 163.213 35.4065 163.168 35.4798L159.121 42.4268V31.6883C159.661 31.5342 160.148 31.2334 160.527 30.8194C162.589 28.2236 160.602 24.892 162.629 22.9888C162.813 22.8371 163.026 22.7233 163.254 22.654C163.482 22.5847 163.722 22.5613 163.96 22.585C164.197 22.6088 164.428 22.6792 164.638 22.7924C164.848 22.9056 165.034 23.0592 165.184 23.2444C165.685 23.8308 165.963 24.5746 165.973 25.3453C166.193 27.3453 166.196 29.3628 165.981 31.3628C165.913 31.9936 166.899 31.9882 166.967 31.3628C167.236 28.8517 167.14 26.3137 166.68 23.8308C166.558 23.3954 166.339 22.9931 166.041 22.6532C165.742 22.3134 165.372 22.0448 164.956 21.8671C164.54 21.6888 164.09 21.6054 163.638 21.6231C163.186 21.6408 162.744 21.7591 162.344 21.9693C161.654 22.467 161.156 23.1879 160.933 24.0083C160.22 26.6042 161.053 27.3964 160.16 29.6237C159.935 30.062 159.572 30.4137 159.127 30.6244V27.738C159.248 25.5687 158.981 23.3952 158.338 21.3197C157.555 18.9884 156.201 16.8901 154.4 15.2158C152.599 13.5415 150.407 12.3446 148.025 11.7339C146.449 11.4106 144.845 11.2506 143.237 11.2564C136.327 11.1071 58.9268 11.0762 56.4103 11.321C52.7243 11.6638 49.2987 13.3688 46.8029 16.1028C44.3072 18.8369 42.9207 22.4034 42.9145 26.1052V55.3199C40.4895 56.4531 38.3113 58.0527 36.5043 60.0274C34.285 56.0314 29.2937 54.5573 24.9453 55.1679C19.3864 55.9494 15.3124 60.3139 12.8282 65.0833C9.9987 71.1187 8.24623 77.6024 7.64997 84.2415C7.17249 89.7681 6.73671 243.983 6.72461 248.167C6.72566 248.298 6.77787 248.422 6.86996 248.514C6.96205 248.606 7.08665 248.659 7.21688 248.66H105.851C105.981 248.659 106.106 248.606 106.199 248.514C106.291 248.422 106.343 248.298 106.345 248.167V247.527C114.078 247.975 121.836 247.675 129.511 246.631C129.511 247.169 129.537 247.76 129.537 247.76C129.539 247.89 129.592 248.014 129.684 248.106C129.776 248.198 129.9 248.251 130.03 248.253H220.445C220.575 248.251 220.699 248.198 220.791 248.106C220.882 248.014 220.935 247.89 220.937 247.76V213.351C220.935 213.221 220.882 213.097 220.791 213.005C220.699 212.913 220.575 212.86 220.445 212.857ZM76.2248 140.371C76.6782 138.854 77.629 137.533 78.9242 136.621C80.4137 135.749 82.1787 135.474 83.863 135.852C90.6002 137.251 93.5807 148.315 88.2262 153.497C84.5436 157.088 78.4817 154.928 76.5247 150.289C75.2985 147.114 75.1927 143.615 76.2248 140.371ZM144.767 169.665L153.432 162.512C162.899 175.471 169.749 184.156 177.182 194.523C173.599 193.064 169.751 192.37 165.884 192.488C158.913 185.186 151.537 177.33 144.767 169.665ZM144.064 198.065C144.064 197.57 144.106 197.045 144.084 196.542C148.162 195.708 152.259 194.958 156.377 194.355C160.492 193.594 164.683 193.323 168.862 193.548C178.201 194.135 186.002 200.225 192.46 207.051C193.786 208.456 195.199 210.127 195.15 212.162C195.111 213.649 193.491 215.357 191.911 214.904C191.464 214.776 191.038 215.406 191.432 215.727C192.86 216.895 192.515 219.317 191.385 220.569C189.736 222.404 186.796 222.364 184.543 222.26C184.456 222.263 184.371 222.289 184.297 222.335C184.223 222.381 184.162 222.446 184.121 222.523C184.08 222.6 184.061 222.687 184.064 222.774C184.068 222.861 184.094 222.946 184.141 223.02C184.203 223.119 184.298 223.192 184.409 223.228C184.919 223.437 185.355 223.797 185.657 224.258C185.96 224.72 186.115 225.263 186.102 225.815C186.079 226.444 185.904 227.058 185.591 227.604C185.278 228.15 184.837 228.612 184.306 228.95C183.092 229.748 181.789 230.401 180.423 230.896C172.656 233.819 160.82 238.951 144.064 242.929V198.065ZM193.302 217.382C193.685 217.934 197.36 223.242 197.704 223.754C197.899 224.045 198.031 224.358 197.704 224.619C197.399 224.863 197.127 224.697 196.897 224.46C196.454 224.011 192.782 220.218 192.782 220.218C193.244 219.349 193.425 218.358 193.302 217.382ZM55.6033 137.288C55.5509 138 55.6456 138.715 55.8814 139.389C56.1171 140.063 56.489 140.681 56.9738 141.205C55.7804 143.489 54.5757 145.767 53.3598 148.039C52.6443 144.476 53.0222 139.906 55.6033 137.288ZM56.7115 136.471C60.5798 134.464 65.6235 136.309 67.7109 142.024C62.6107 144.565 55.4002 141.502 56.7115 136.471ZM65.7419 153.497C62.0727 157.069 55.5831 155.084 53.7324 149.432C55.0679 146.931 56.3928 144.424 57.7068 141.911C59.1579 143.027 60.8908 143.718 62.7118 143.906C64.5329 144.094 66.3703 143.772 68.0189 142.976C69.0169 146.571 68.5287 150.799 65.7419 153.497ZM70.7964 135.291C71.1379 136.427 71.1055 137.643 70.704 138.759C70.3025 139.875 69.5532 140.833 68.5664 141.491C66.3861 135.76 61.4513 133.701 57.2105 135.17C57.9132 133.829 59.0276 132.748 60.3901 132.087C64.1252 130.523 69.1931 131.832 70.7964 135.291ZM77.9491 127.607C75.7665 130.054 72.8447 131.722 69.6276 132.357C65.5038 129.32 59.6329 129.873 56.92 133.752C56.6369 133.183 56.5359 132.541 56.6308 131.912C57.2455 127.536 61.0424 124.499 65.177 122.893C68.4663 121.623 72.0236 121.206 75.5173 121.682C77.1156 121.842 78.7292 121.626 80.2289 121.05C80.2962 123.441 79.4852 125.774 77.9491 127.607ZM157.768 78.5911L124.536 116.894C122.536 119.32 120.024 121.272 117.18 122.611C114.336 123.95 111.23 124.643 108.086 124.639H80.6915C81.1774 123.238 81.3397 121.745 81.1663 120.273C81.1649 120.207 81.1506 120.142 81.1241 120.082C81.0976 120.022 81.0595 119.968 81.012 119.923C80.9645 119.878 80.9086 119.842 80.8473 119.819C80.7861 119.795 80.7208 119.784 80.6552 119.786C79.0784 120.608 77.288 120.928 75.524 120.703C73.0807 120.436 70.6112 120.534 68.1965 120.992C68.4924 120.367 68.7816 119.739 69.0734 119.109H107.449C110.733 119.207 113.997 118.575 117.008 117.259C120.018 115.943 122.699 113.977 124.859 111.501C126.457 109.671 155.721 75.9294 157.761 73.5783L157.768 78.5911ZM157.147 72.7969L124.529 110.383C122.529 112.808 120.017 114.761 117.173 116.1C114.329 117.438 111.223 118.13 108.08 118.126H69.5253C70.8569 115.241 72.1427 112.333 73.3425 109.39C79.4327 109.742 85.5417 109.594 91.6076 108.945C93.9241 108.762 96.2108 108.305 98.42 107.584H125.737C125.863 107.577 125.982 107.523 126.069 107.431C126.156 107.339 126.205 107.217 126.205 107.091C126.205 106.965 126.156 106.843 126.069 106.751C125.982 106.659 125.863 106.605 125.737 106.598H100.54C104.764 104.192 106.275 98.3478 102.26 95.4682H112.046C112.162 95.448 112.268 95.3875 112.343 95.2973C112.419 95.2071 112.461 95.0931 112.461 94.9753C112.461 94.8574 112.419 94.7434 112.343 94.6532C112.268 94.563 112.162 94.5025 112.046 94.4823H100.489C95.5914 92.5832 85.0668 92.1447 80.1589 90.8723C77.2725 90.1743 75.1743 87.6443 75.3976 83.7626H96.6782C96.8045 83.7561 96.9234 83.7012 97.0105 83.6095C97.0975 83.5178 97.1461 83.3962 97.1461 83.2697C97.1461 83.1432 97.0975 83.0216 97.0105 82.9299C96.9234 82.8382 96.8045 82.7834 96.6782 82.7768H75.5012C76.1212 78.7525 78.6122 75.5366 81.5873 72.7579C81.5873 72.7552 155.962 72.8251 157.14 72.7969H157.147ZM163.584 36.7186L171.385 50.1027H155.783C155.92 49.866 163.448 36.9432 163.584 36.7186ZM43.9004 26.1052C43.9053 24.2422 44.2844 22.3991 45.0152 20.6854C45.7459 18.9717 46.8135 17.4223 48.1545 16.129C49.4956 14.8358 51.0827 13.8251 52.8218 13.157C54.5609 12.4889 56.4165 12.1769 58.2785 12.2396H144.126C145.947 12.2218 147.754 12.563 149.443 13.2436C151.132 13.9242 152.671 14.931 153.971 16.2063C155.271 17.4816 156.308 19.0006 157.021 20.6765C157.734 22.3523 158.11 24.1522 158.127 25.9734V30.8557C158.092 30.8557 158.06 30.8678 158.024 30.8665C157.582 30.8475 157.155 30.7007 156.794 30.4438C156.434 30.1869 156.156 29.831 155.994 29.4193C155.144 27.3278 156.166 24.9552 155.176 22.8839C154.98 22.4447 154.692 22.0529 154.331 21.7353C153.97 21.4178 153.544 21.1819 153.083 21.044C152.596 20.9447 152.091 20.9809 151.622 21.1488C151.154 21.3167 150.74 21.6098 150.427 21.9962C148.477 24.354 150.014 27.8133 148.917 29.8443C148.649 30.08 148.333 30.2533 147.99 30.3516C147.647 30.4499 147.287 30.4707 146.935 30.4125C146.583 30.3543 146.249 30.2185 145.956 30.0151C145.663 29.8117 145.419 29.5457 145.242 29.2364C144.724 28.2464 144.497 27.13 144.587 26.0164C144.621 24.6943 144.731 23.3748 144.918 22.0662C144.996 21.438 144.01 21.4448 143.932 22.0662C143.51 24.2548 143.504 26.5034 143.915 28.6943C144.193 29.6425 144.805 30.4563 145.639 30.9875C146.453 31.4179 147.395 31.5417 148.293 31.3359C150.579 30.849 150.35 27.999 150.322 26.2101C150.232 25.1846 150.396 24.1528 150.798 23.2054C150.966 22.7523 151.305 22.3832 151.742 22.1775C152.179 21.9717 152.68 21.9457 153.136 22.1052C155.327 23.1193 154.548 26.2437 154.695 28.1187C154.855 30.1684 156.072 31.8847 158.13 31.8551V44.1228L154.508 50.3408C154.465 50.4157 154.443 50.5004 154.444 50.5866C154.444 50.6727 154.467 50.7572 154.511 50.8317C154.553 50.9063 154.615 50.9686 154.689 51.0125C154.763 51.0563 154.847 51.0802 154.933 51.0818H158.13V67.7773H87.5658C90.4363 65.6912 93.0352 63.2549 95.3023 60.5251C97.0391 58.5704 98.1442 56.1361 98.4724 53.5418C98.5869 52.4246 98.4213 51.2965 97.9907 50.2593C97.56 49.2222 96.8778 48.3085 96.0057 47.601C93.7784 45.8256 90.962 46.6043 88.6243 47.761C79.7632 52.4235 71.288 57.785 63.2792 63.7948C62.803 61.8441 61.8815 60.0303 60.5869 58.4955C59.2922 56.9608 57.6596 55.7468 55.8171 54.9487C53.9354 54.139 51.9098 53.7172 49.8613 53.7084C47.8128 53.6996 45.7836 54.1041 43.895 54.8976L43.9004 26.1052ZM8.34802 88.3383C8.66813 77.5635 12.4866 60.213 22.796 56.6905C27.6582 55.0308 33.7941 56.3139 35.9676 61.129C36.0059 61.1938 36.0585 61.2491 36.1215 61.2905C36.1844 61.332 36.2559 61.3585 36.3306 61.3681C36.4053 61.3777 36.4813 61.3701 36.5526 61.3459C36.624 61.3217 36.6888 61.2816 36.7423 61.2285C43.2965 53.679 53.4674 52.326 59.6073 58.86C61.1473 60.4952 62.1441 62.5664 62.4614 64.7901C62.4972 64.9161 62.5813 65.0228 62.6954 65.0871C62.8095 65.1513 62.9444 65.1678 63.0707 65.1331C71.1244 59.0944 79.6255 53.6768 88.5006 48.9272C89.7211 48.193 91.0794 47.7174 92.4912 47.5297C93.6231 47.4953 94.7305 47.8644 95.6154 48.571C96.5004 49.2776 97.1054 50.2757 97.3225 51.3872C97.5377 52.6461 97.4879 53.9361 97.1761 55.1747C96.8644 56.4133 96.2976 57.5732 95.5121 58.5802C90.5732 65.9925 81.1287 69.6361 76.3983 77.5192C74.3929 80.8615 73.333 85.7882 75.8442 89.1722C77.3791 90.9547 79.5526 92.0631 81.8967 92.259C95.504 94.5697 101.924 94.0506 103.396 98.5213C103.661 99.5673 103.647 100.665 103.355 101.703C103.062 102.742 102.502 103.685 101.73 104.439C99.8925 106.128 97.5693 107.193 95.0911 107.484C87.7905 108.559 80.3971 108.862 73.0331 108.388C72.3095 108.402 73.0331 108.56 66.9698 121.281C64.9113 121.821 62.9546 122.693 61.1769 123.862C61.1769 123.862 8.83895 123.807 8.2189 123.836C8.26329 110.792 8.30364 89.4789 8.34802 88.3383ZM104.688 246.415C92.2279 245.542 80.0947 242.037 69.0882 236.132C52.0915 226.946 32.0375 211.25 23.2883 205.235C22.7637 204.875 22.2701 205.729 22.7906 206.085C31.8949 212.331 37.248 216.837 50.8056 226.023C68.9161 238.284 83.0749 245.85 105.364 247.455V247.674C105.364 247.674 8.04674 247.656 7.71722 247.663C7.71722 242.006 8.20814 125.709 8.21218 124.848H59.8427C58.5481 125.872 57.4724 127.145 56.6792 128.593C55.7216 130.458 54.9724 133.119 56.3712 134.668C56.1845 135.037 56.0263 135.42 55.8978 135.813C54.7984 136.549 53.9161 137.566 53.3423 138.758C51.8436 142.084 51.6046 145.84 52.6698 149.329C49.4728 155.254 46.2547 161.168 43.0154 167.071C42.9697 167.156 42.9496 167.252 42.9574 167.348C42.9652 167.444 43.0007 167.536 43.0596 167.613C43.1184 167.689 43.1981 167.747 43.2891 167.779C43.38 167.811 43.4784 167.817 43.5722 167.794C65.8226 160.48 87.8079 166.41 97.8685 188.401C100.335 193.638 102.201 199.138 103.43 204.795C95.6923 206.354 88.5732 207.633 80.7816 206.006C68.3848 203.271 48.7962 193.244 33.7067 187.571C33.1122 187.348 32.8553 188.3 33.4377 188.522C52.6792 195.735 73.1824 207.217 86.6526 207.722C99.0373 208.187 121.55 201.266 142.999 196.768V241.643C142.999 242.1 142.913 242.691 142.958 243.19C130.439 246.201 117.534 247.289 104.688 246.415ZM219.945 247.268H130.526V246.496C146.089 244.319 161.545 239.398 176.156 233.653C177.904 232.973 179.628 232.241 181.38 231.573C182.778 231.056 184.092 230.335 185.28 229.434C185.751 229.095 186.148 228.665 186.448 228.168C186.749 227.672 186.945 227.12 187.027 226.545C187.108 225.971 187.073 225.386 186.922 224.826C186.772 224.265 186.51 223.741 186.152 223.285C187.87 223.354 189.574 222.942 191.072 222.096C191.507 221.816 191.895 221.468 192.219 221.064L196.146 225.099C196.292 225.29 196.48 225.443 196.695 225.548C196.911 225.653 197.148 225.705 197.387 225.702C197.627 225.698 197.862 225.639 198.075 225.528C198.287 225.417 198.471 225.258 198.61 225.063C198.799 224.802 198.9 224.49 198.901 224.17C198.823 223.661 198.597 223.187 198.25 222.807C196.741 220.612 193.506 215.948 193.408 215.796C194.361 215.429 195.152 214.735 195.641 213.838H219.949L219.945 247.268Z" fill="#41A3FF"/>
<path d="M88.7243 43.2969C89.1547 43.7664 89.85 43.0669 89.421 42.6002C89.421 42.6002 82.8399 35.4381 82.6476 35.231L89.659 26.7575C90.0625 26.2719 89.3672 25.5712 88.9623 26.0608L81.6469 34.8947C81.5588 34.9893 81.5098 35.1138 81.5098 35.2431C81.5098 35.3724 81.5588 35.4968 81.6469 35.5914C91.1089 45.7529 88.1486 42.6715 88.7243 43.2969Z" fill="#41A3FF"/>
<path d="M121.039 35.231L114.267 42.6002C113.836 43.0669 114.536 43.7663 114.963 43.2969L122.041 35.5968C122.129 35.5025 122.179 35.3779 122.179 35.2485C122.179 35.119 122.129 34.9944 122.041 34.9001L114.728 26.0661C114.324 25.5766 113.629 26.2773 114.031 26.7629L121.039 35.231Z" fill="#41A3FF"/>
<path d="M94.4592 43.3494C98.6825 39.274 110.451 27.3573 110.451 27.3573C110.542 27.2644 110.593 27.1391 110.592 27.0088C110.592 26.8786 110.54 26.7539 110.447 26.662C110.355 26.57 110.23 26.5183 110.1 26.5181C109.97 26.5178 109.844 26.5691 109.752 26.6606C105.531 30.7414 94.9205 41.4556 93.7625 42.6513C93.6766 42.745 93.6302 42.8683 93.6329 42.9953C93.6356 43.1224 93.6873 43.2436 93.7771 43.3335C93.8668 43.4235 93.9879 43.4753 94.115 43.4783C94.242 43.4813 94.3653 43.4351 94.4592 43.3494Z" fill="#41A3FF"/>
<path d="M127.928 83.7598H147.094C147.22 83.7532 147.339 83.6984 147.426 83.6067C147.513 83.515 147.562 83.3933 147.562 83.2669C147.562 83.1404 147.513 83.0188 147.426 82.9271C147.339 82.8353 147.22 82.7805 147.094 82.7739H127.928C127.802 82.7805 127.683 82.8353 127.596 82.9271C127.508 83.0188 127.46 83.1404 127.46 83.2669C127.46 83.3933 127.508 83.515 127.596 83.6067C127.683 83.6984 127.802 83.7532 127.928 83.7598Z" fill="#41A3FF"/>
<path d="M102.942 83.7598H121.692C121.818 83.7532 121.937 83.6984 122.024 83.6067C122.111 83.515 122.16 83.3933 122.16 83.2669C122.16 83.1404 122.111 83.0188 122.024 82.9271C121.937 82.8353 121.818 82.7805 121.692 82.7739H102.942C102.816 82.7805 102.697 82.8353 102.61 82.9271C102.523 83.0188 102.475 83.1404 102.475 83.2669C102.475 83.3933 102.523 83.515 102.61 83.6067C102.697 83.6984 102.816 83.7532 102.942 83.7598Z" fill="#41A3FF"/>
<path d="M136.622 94.4795H118.035C117.909 94.4861 117.79 94.5409 117.703 94.6326C117.616 94.7243 117.567 94.846 117.567 94.9724C117.567 95.0989 117.616 95.2205 117.703 95.3122C117.79 95.404 117.909 95.4588 118.035 95.4654H136.622C136.748 95.4588 136.867 95.404 136.954 95.3122C137.041 95.2205 137.09 95.0989 137.09 94.9724C137.09 94.846 137.041 94.7243 136.954 94.6326C136.867 94.5409 136.748 94.4861 136.622 94.4795Z" fill="#41A3FF"/>
<path d="M27.9457 73.3846C29.5175 69.8323 31.6851 66.5749 34.3546 63.7531C34.7917 63.2931 34.0964 62.595 33.6579 63.0564C30.918 65.93 28.6972 69.2571 27.0943 72.8897C26.8414 73.4626 27.6915 73.9657 27.9457 73.3846Z" fill="#41A3FF"/>
<path d="M52.7497 78.193C54.5212 73.9138 57.2768 70.1127 60.7928 67.0981C61.2756 66.6865 60.5749 65.9925 60.0934 66.4014C56.4459 69.5246 53.6033 73.4794 51.8055 77.9321C51.5607 78.5185 52.5143 78.7741 52.7497 78.193Z" fill="#41A3FF"/>
<path d="M33.817 131.617C34.7458 131.125 35.7844 130.877 36.8354 130.895C37.8865 130.914 38.9156 131.199 39.8265 131.724C41.1504 132.593 42.2452 133.769 43.0181 135.152C45.119 138.256 48.7828 145.105 49.8265 146.854C49.8767 146.937 49.9503 147.003 50.0381 147.044C50.1259 147.085 50.2238 147.099 50.3196 147.084C50.4154 147.069 50.5046 147.027 50.5761 146.961C50.6475 146.896 50.6979 146.811 50.721 146.716C50.7525 146.595 50.7366 146.466 50.6766 146.356C45.7821 137.697 43.0571 132.293 40.2286 130.82C39.2005 130.263 38.055 129.957 36.886 129.929C35.717 129.9 34.5579 130.149 33.5036 130.654C32.2324 131.437 31.2389 132.599 30.6634 133.976C30.0878 135.354 29.9593 136.877 30.2958 138.332C30.3131 138.393 30.3424 138.45 30.3821 138.5C30.4219 138.55 30.4712 138.592 30.5271 138.622C30.5826 138.653 30.6439 138.673 30.7072 138.68C30.7705 138.688 30.8346 138.682 30.8957 138.664C31.0172 138.626 31.1203 138.544 31.1851 138.434C31.2499 138.324 31.2719 138.194 31.2467 138.069C30.9664 136.86 31.0624 135.594 31.5217 134.441C31.9811 133.288 32.782 132.303 33.817 131.617Z" fill="#41A3FF"/>
<path d="M172.16 206.108L188.59 214.436C189.155 214.723 189.654 213.873 189.088 213.586L172.657 205.257C172.094 204.97 171.595 205.82 172.16 206.108Z" fill="#41A3FF"/>
<path d="M181.807 222.867C181.824 222.804 181.829 222.739 181.821 222.675C181.813 222.611 181.792 222.549 181.76 222.493C181.728 222.436 181.686 222.387 181.635 222.347C181.584 222.307 181.525 222.277 181.463 222.26C176.835 221.598 172.185 221.105 167.522 220.781C166.89 220.736 166.892 221.722 167.522 221.766C172.095 222.085 176.654 222.569 181.201 223.216C181.327 223.248 181.461 223.229 181.574 223.164C181.688 223.099 181.771 222.992 181.807 222.867Z" fill="#41A3FF"/>
<path d="M151.162 159.844L141.994 167.645C141.509 168.057 142.209 168.751 142.69 168.342L151.859 160.541C152.343 160.129 151.643 159.434 151.162 159.844Z" fill="#41A3FF"/>
<path d="M141.426 166.819C144.563 164.317 147.642 161.744 150.66 159.1C151.137 158.682 150.438 157.986 149.962 158.403C146.943 161.046 143.865 163.62 140.729 166.122C140.233 166.518 140.934 167.212 141.426 166.819Z" fill="#41A3FF"/>
<path d="M118.578 242.1H111.795C111.669 242.107 111.55 242.162 111.463 242.254C111.376 242.346 111.328 242.467 111.327 242.594C111.327 242.72 111.375 242.842 111.462 242.934C111.55 243.026 111.669 243.08 111.795 243.086H118.579C118.673 243.08 118.764 243.048 118.84 242.993C118.916 242.938 118.975 242.863 119.01 242.775C119.045 242.688 119.054 242.592 119.037 242.5C119.019 242.408 118.976 242.322 118.912 242.253C118.825 242.162 118.706 242.107 118.579 242.1H118.578Z" fill="#41A3FF"/>
<path d="M11.7115 129.694C11.5866 129.699 11.468 129.75 11.3796 129.839C11.2913 129.927 11.2397 130.046 11.2354 130.17V138.167C11.242 138.293 11.2968 138.412 11.3885 138.499C11.4802 138.586 11.6018 138.634 11.7283 138.634C11.8547 138.634 11.9764 138.586 12.0681 138.499C12.1598 138.412 12.2146 138.293 12.2212 138.167V130.17C12.2167 130.04 12.1604 129.916 12.0649 129.827C11.9693 129.738 11.8422 129.69 11.7115 129.694Z" fill="#41A3FF"/>
<path d="M238.107 197.116C236.232 197.757 234.605 198.971 233.457 200.586C232.309 202.201 231.697 204.136 231.707 206.117V247.69C231.714 247.816 231.769 247.935 231.861 248.022C231.953 248.109 232.074 248.157 232.201 248.158C232.327 248.157 232.448 248.108 232.54 248.021C232.631 247.934 232.686 247.816 232.693 247.69V206.076C232.752 203.874 233.665 201.782 235.24 200.242C236.815 198.702 238.928 197.836 241.13 197.828C243.332 197.819 245.452 198.668 247.039 200.195C248.626 201.722 249.556 203.807 249.632 206.008C249.632 206.464 249.624 206.92 249.632 207.376C249.639 207.502 249.694 207.621 249.786 207.708C249.878 207.795 249.999 207.844 250.126 207.844C250.252 207.843 250.373 207.795 250.464 207.708C250.556 207.621 250.611 207.502 250.618 207.376C250.713 205.901 250.541 204.421 250.111 203.008C249.718 201.827 249.095 200.736 248.276 199.798C247.457 198.861 246.46 198.096 245.343 197.548C244.225 197.001 243.01 196.681 241.768 196.607C240.526 196.532 239.281 196.706 238.107 197.116Z" fill="#41A3FF"/>
<path d="M248.995 195.294C246.956 193.989 244.625 193.209 242.211 193.022C239.797 192.836 237.374 193.25 235.159 194.227C232.976 195.262 231.132 196.896 229.843 198.94C228.554 200.983 227.873 203.351 227.88 205.767C227.872 207.221 227.88 246.906 227.88 246.906C227.935 251.489 224.911 256.565 217.989 256.762C212.121 256.927 194.169 256.647 129.75 256.762C129.685 256.763 129.621 256.777 129.562 256.804C129.503 256.83 129.45 256.869 129.406 256.916C129.361 256.964 129.327 257.02 129.304 257.081C129.281 257.142 129.271 257.207 129.274 257.272C129.278 257.397 129.329 257.516 129.417 257.604C129.506 257.693 129.625 257.744 129.75 257.748H217.946C220.767 257.821 223.501 256.772 225.549 254.83C226.563 253.869 227.377 252.717 227.945 251.44C228.514 250.164 228.825 248.788 228.862 247.391V208.192C228.739 206.231 228.907 204.261 229.359 202.348C233.272 189.785 254.341 191.279 253.454 207.371C253.454 207.501 253.506 207.626 253.598 207.719C253.691 207.81 253.816 207.861 253.946 207.861C254.076 207.861 254.201 207.81 254.294 207.719C254.34 207.673 254.376 207.619 254.401 207.559C254.426 207.499 254.438 207.435 254.438 207.371C254.689 205.055 254.317 202.715 253.36 200.592C252.403 198.468 250.896 196.639 248.995 195.294Z" fill="#41A3FF"/>
<path d="M226.498 197.294C224.686 200.261 223.762 203.686 223.837 207.162C223.837 207.162 223.827 246.021 223.837 246.692C223.856 247.44 223.711 248.183 223.412 248.869C223.113 249.555 222.668 250.168 222.108 250.664C220.835 251.586 219.26 251.993 217.7 251.801H129.892C129.798 251.807 129.708 251.839 129.631 251.894C129.555 251.949 129.496 252.025 129.461 252.112C129.426 252.199 129.417 252.295 129.434 252.387C129.452 252.48 129.495 252.565 129.56 252.634C129.647 252.726 129.766 252.781 129.892 252.787H218.738C219.913 252.815 221.07 252.494 222.063 251.866C223.056 251.237 223.84 250.328 224.318 249.254C224.634 248.541 224.807 247.772 224.826 246.992V206.574C224.823 204.382 225.26 202.21 226.112 200.19C226.964 198.169 228.213 196.34 229.785 194.811C231.357 193.283 233.22 192.085 235.263 191.289C237.306 190.493 239.488 190.115 241.68 190.178C243.872 190.241 246.028 190.744 248.022 191.656C250.016 192.569 251.807 193.872 253.288 195.489C254.769 197.105 255.911 199.003 256.645 201.069C257.38 203.135 257.693 205.327 257.565 207.516C257.572 207.642 257.627 207.76 257.718 207.847C257.81 207.934 257.931 207.983 258.057 207.984C258.184 207.985 258.306 207.936 258.398 207.849C258.489 207.762 258.544 207.643 258.55 207.516C258.671 205.06 258.276 202.607 257.39 200.313C256.504 198.02 255.147 195.937 253.407 194.2C251.559 192.372 249.324 190.982 246.867 190.133C244.41 189.284 241.793 188.997 239.211 189.294C236.628 189.591 234.145 190.464 231.945 191.848C229.744 193.233 227.883 195.094 226.498 197.294Z" fill="#41A3FF"/>
<path d="M228.975 188.838C226.208 190.794 223.953 193.388 222.4 196.399C220.848 199.411 220.044 202.753 220.056 206.141V211.137C220.056 211.267 220.108 211.392 220.2 211.485C220.293 211.576 220.418 211.627 220.548 211.627C220.678 211.627 220.803 211.576 220.896 211.485C220.988 211.392 221.04 211.267 221.04 211.137C220.866 207.854 221.055 204.56 221.607 201.318C222.771 196.515 225.663 192.307 229.73 189.499C233.798 186.691 238.757 185.478 243.661 186.092C248.566 186.705 253.073 189.103 256.323 192.826C259.573 196.55 261.339 201.34 261.284 206.283V207.305C261.291 207.431 261.346 207.549 261.438 207.636C261.529 207.723 261.65 207.772 261.776 207.773C261.903 207.773 262.025 207.725 262.117 207.638C262.209 207.551 262.264 207.431 262.27 207.305C262.494 203.336 261.594 199.384 259.675 195.903C257.755 192.422 254.893 189.552 251.417 187.623C247.94 185.696 243.991 184.787 240.021 185.002C236.052 185.217 232.223 186.546 228.975 188.838Z" fill="#41A3FF"/>
<path d="M179.083 123.273C179.302 122.973 179.298 123.927 179.228 114.312C179.227 114.181 179.175 114.056 179.082 113.964C178.99 113.872 178.865 113.82 178.734 113.819H170.12C169.99 113.821 169.865 113.874 169.773 113.966C169.681 114.058 169.628 114.182 169.626 114.312V122.933C169.627 123.064 169.679 123.189 169.772 123.281C169.864 123.373 169.989 123.426 170.12 123.427C179.669 123.49 178.839 123.48 179.083 123.273ZM178.242 122.434H170.612V114.804H178.242V122.434Z" fill="#41A3FF"/>
<path d="M209.383 124.851C210.908 124.852 212.415 124.515 213.795 123.864C215.175 123.214 216.393 122.265 217.362 121.087C218.332 119.908 219.027 118.53 219.4 117.051C219.773 115.571 219.813 114.028 219.517 112.531C219.122 110.529 218.142 108.689 216.701 107.244C215.259 105.799 213.422 104.814 211.42 104.414C209.588 104.048 207.691 104.186 205.931 104.814C204.172 105.441 202.615 106.535 201.428 107.978C200.241 109.42 199.468 111.158 199.191 113.006C198.914 114.854 199.144 116.742 199.856 118.469C200.372 119.722 201.13 120.862 202.088 121.821C203.045 122.781 204.182 123.542 205.434 124.062C206.686 124.582 208.027 124.85 209.383 124.851ZM206.1 105.752C208.425 104.885 211 104.977 213.258 106.008C215.516 107.039 217.272 108.925 218.139 111.251C219.007 113.577 218.915 116.152 217.883 118.41C216.852 120.668 214.966 122.424 212.64 123.291C211.489 123.72 210.264 123.919 209.036 123.875C207.807 123.831 206.6 123.546 205.482 123.035C204.364 122.524 203.357 121.798 202.52 120.899C201.682 119.999 201.03 118.943 200.601 117.792C199.733 115.466 199.825 112.891 200.857 110.633C201.888 108.375 203.774 106.619 206.1 105.752Z" fill="#41A3FF"/>
<path d="M201.921 182.757C203.016 182.336 204.19 182.163 205.359 182.252C206.964 182.449 208.592 182.268 210.114 181.722C210.66 181.483 211.145 181.125 211.536 180.675C211.927 180.225 212.213 179.694 212.373 179.12C212.483 178.51 212.418 177.881 212.186 177.306C211.954 176.731 211.564 176.233 211.062 175.869C208.755 174.106 205.909 174.888 203.261 174.625C202.092 174.508 200.961 174.19 200.697 172.919C200.569 172.376 200.578 171.811 200.722 171.273C200.867 170.735 201.144 170.241 201.527 169.837C202.444 169.044 203.604 168.586 204.816 168.541C206.951 168.439 209.091 168.558 211.202 168.896C211.83 168.974 211.825 167.986 211.202 167.911C208.493 167.388 205.711 167.373 202.997 167.867C201.831 168.2 200.826 168.948 200.173 169.97C199.633 170.985 199.49 172.163 199.769 173.278C200.455 176.138 204.223 175.644 206.441 175.634C207.692 175.546 208.945 175.801 210.063 176.371C210.608 176.626 211.034 177.08 211.254 177.64C211.473 178.2 211.469 178.823 211.242 179.38C210.219 181.406 207.88 181.371 205.755 181.317C204.804 181.167 203.833 181.207 202.898 181.435C201.963 181.663 201.082 182.075 200.307 182.646C199.902 183.041 199.586 183.519 199.38 184.047C199.174 184.574 199.083 185.14 199.113 185.705C199.143 186.271 199.293 186.824 199.554 187.327C199.815 187.829 200.181 188.27 200.626 188.62C201.648 189.297 202.844 189.658 204.069 189.662C205.246 189.65 206.423 189.711 207.593 189.843C208.621 189.958 209.575 190.434 210.283 191.188C211.494 192.904 209.995 195.063 207.745 195.322C205.044 195.671 202.311 195.703 199.603 195.419C198.973 195.352 198.977 196.338 199.603 196.405C202.707 196.734 205.843 196.623 208.915 196.07C211.133 195.318 212.521 192.763 211.174 190.745C210.531 189.911 209.624 189.32 208.602 189.067C207.495 188.794 206.356 188.674 205.217 188.712C203.988 188.781 202.76 188.569 201.627 188.09C201.261 187.889 200.941 187.613 200.689 187.28C200.437 186.947 200.258 186.564 200.165 186.157C200.071 185.75 200.064 185.328 200.146 184.918C200.227 184.508 200.394 184.12 200.636 183.779C200.959 183.324 201.405 182.97 201.921 182.757Z" fill="#41A3FF"/>
<path d="M174.649 83.4169C174.819 83.5137 174.111 83.4815 186.365 83.4815C186.45 83.4764 186.532 83.4504 186.605 83.4056C186.677 83.3609 186.737 83.2989 186.779 83.2252C186.821 83.1515 186.844 83.0685 186.846 82.9836C186.848 82.8987 186.829 82.8147 186.79 82.739L181.051 72.8882C181.018 72.8322 180.973 72.7833 180.92 72.7445C180.867 72.7057 180.808 72.6777 180.744 72.6621C180.68 72.6464 180.614 72.6435 180.55 72.6535C180.485 72.6635 180.423 72.6861 180.367 72.7201C180.187 72.8304 180.595 72.2319 174.46 82.739C174.427 82.796 174.407 82.8587 174.399 82.9236C174.391 82.9885 174.396 83.0543 174.414 83.1173C174.432 83.1802 174.461 83.2391 174.502 83.2905C174.542 83.3419 174.592 83.3849 174.649 83.4169ZM180.625 74.1149L185.507 82.4956H175.743C175.948 82.1445 180.519 74.3005 180.625 74.1095V74.1149Z" fill="#41A3FF"/>
<path d="M185.761 42.9996C186.157 42.9902 186.55 43.0616 186.916 43.2095C187.283 43.3573 187.616 43.5785 187.894 43.8594C188.172 44.1403 188.39 44.4751 188.535 44.8432C188.679 45.2113 188.747 45.6051 188.734 46.0003V51.2189C188.735 51.3492 188.787 51.474 188.879 51.5663C188.971 51.6586 189.096 51.7111 189.226 51.7125H197.937C198.068 51.7114 198.193 51.6591 198.285 51.5667C198.378 51.4744 198.43 51.3495 198.431 51.2189C198.489 43.2363 198.547 42.5867 197.966 40.5086C197.307 38.4226 196.003 36.6001 194.24 35.3048C192.477 34.0094 190.348 33.3085 188.161 33.3035H185.761C185.631 33.3055 185.507 33.358 185.415 33.4499C185.323 33.5417 185.27 33.6657 185.268 33.7957V42.5019C185.267 42.6333 185.319 42.7595 185.412 42.8528C185.504 42.9461 185.63 42.9989 185.761 42.9996ZM186.253 34.2894H188.165C189.447 34.2859 190.715 34.5479 191.891 35.0589C193.066 35.5699 194.123 36.3189 194.995 37.2586C195.867 38.1983 196.535 39.3084 196.957 40.5189C197.378 41.7294 197.545 43.0141 197.445 44.2921V50.7266H189.72V47.5927C189.935 46.1763 189.654 44.7291 188.925 43.4959C188.603 43.0831 188.2 42.741 187.74 42.4909C187.281 42.2407 186.775 42.0879 186.253 42.0419V34.2894Z" fill="#41A3FF"/>
<path d="M188.859 173.047C188.984 173.043 189.103 172.991 189.192 172.904C189.28 172.815 189.331 172.696 189.336 172.571V152.445H202.896C202.963 152.441 203.028 152.424 203.089 152.395C203.149 152.366 203.204 152.326 203.248 152.276C203.293 152.226 203.327 152.167 203.35 152.104C203.372 152.041 203.381 151.974 203.377 151.907C203.363 151.587 199.45 145.04 191.346 131.147C191.302 131.073 191.24 131.013 191.166 130.971C191.091 130.929 191.007 130.907 190.921 130.907C190.836 130.907 190.751 130.929 190.677 130.971C190.602 131.013 190.539 131.073 190.495 131.147L178.524 151.701C178.462 151.815 178.446 151.95 178.481 152.076C178.517 152.201 178.6 152.308 178.713 152.373C178.889 152.472 178.335 152.437 188.354 152.437V172.563C188.355 172.628 188.369 172.692 188.395 172.752C188.421 172.812 188.458 172.866 188.506 172.91C188.553 172.955 188.608 172.991 188.669 173.014C188.73 173.038 188.794 173.049 188.859 173.047ZM179.804 151.459L190.921 132.376L202.038 151.459H189.336V148.341C189.328 148.215 189.274 148.097 189.182 148.01C189.091 147.923 188.969 147.874 188.843 147.873C188.717 147.873 188.595 147.921 188.503 148.008C188.411 148.095 188.356 148.215 188.35 148.341V151.459H179.804Z" fill="#41A3FF"/>
<path d="M183.279 124.355V103.034C183.272 102.908 183.217 102.789 183.125 102.702C183.033 102.615 182.912 102.566 182.785 102.566C182.659 102.565 182.537 102.614 182.445 102.701C182.353 102.788 182.299 102.908 182.293 103.034V124.355C182.298 124.449 182.331 124.539 182.386 124.615C182.441 124.692 182.516 124.751 182.604 124.786C182.691 124.821 182.786 124.83 182.879 124.812C182.971 124.795 183.057 124.751 183.126 124.687C183.217 124.6 183.272 124.481 183.279 124.355Z" fill="#41A3FF"/>
<path d="M191.033 102.548V72.0166C191.026 71.8907 190.971 71.7722 190.879 71.6852C190.788 71.5983 190.667 71.5494 190.54 71.5486C190.414 71.5487 190.292 71.5973 190.201 71.6844C190.109 71.7714 190.054 71.8903 190.047 72.0166V102.548C190.054 102.674 190.109 102.793 190.201 102.88C190.292 102.967 190.414 103.016 190.54 103.016C190.667 103.017 190.789 102.968 190.881 102.881C190.972 102.794 191.027 102.675 191.033 102.548Z" fill="#41A3FF"/>
<path d="M196.37 87.7693V64.5088C196.362 64.3829 196.308 64.2643 196.216 64.1774C196.125 64.0904 196.004 64.0416 195.877 64.0408C195.751 64.0409 195.629 64.0895 195.537 64.1766C195.446 64.2636 195.391 64.3825 195.384 64.5088V87.7693C195.389 87.8632 195.421 87.9536 195.476 88.0298C195.531 88.1061 195.607 88.1652 195.694 88.2C195.782 88.2349 195.877 88.2441 195.97 88.2267C196.062 88.2092 196.148 88.1658 196.216 88.1015C196.308 88.0144 196.363 87.8955 196.37 87.7693Z" fill="#41A3FF"/>
<path d="M124.843 195.875C131.557 193.36 138.547 191.652 145.664 190.788C146.285 190.713 146.292 189.727 145.664 189.802C138.457 190.657 131.379 192.377 124.584 194.924C123.992 195.145 124.248 196.101 124.845 195.875H124.843Z" fill="#41A3FF"/>
<path d="M144.498 185.475C137.204 186.647 130.066 188.641 123.221 191.419C122.641 191.654 122.895 192.608 123.49 192.37C130.336 189.595 137.474 187.602 144.767 186.426C145.385 186.328 145.124 185.377 144.498 185.475Z" fill="#41A3FF"/>
<path d="M19.9286 49.3335C20.2864 49.8513 21.1391 49.359 20.7786 48.8358L12.8431 37.3253C12.4854 36.8062 11.6326 37.2984 11.9918 37.823L19.9286 49.3335Z" fill="#41A3FF"/>
<path d="M26.3822 48.4266C26.5167 49.0466 27.4717 48.7844 27.3331 48.1657L23.5672 31.1756C23.4327 30.5569 22.4777 30.8178 22.6162 31.4446C23.0332 33.3478 25.9236 46.3607 26.3822 48.4266Z" fill="#41A3FF"/>
</svg>
